Coordinates
version=1
nRows=8
nColumns=40
inDegrees=yes

Units are S.I. units (second, meters, Newtons, ...)
If the header above contains a line with 'inDegrees', this indicates whether rotational values are in degrees (yes) or radians (no).

endheader
time	pelvis_tilt	pelvis_list	pelvis_rotation	pelvis_tx	pelvis_ty	pelvis_tz	hip_flexion_r	hip_adduction_r	hip_rotation_r	knee_angle_r	knee_angle_r_beta	ankle_angle_r	subtalar_angle_r	mtp_angle_r	hip_flexion_l	hip_adduction_l	hip_rotation_l	knee_angle_l	knee_angle_l_beta	ankle_angle_l	subtalar_angle_l	mtp_angle_l	lumbar_extension	lumbar_bending	lumbar_rotation	arm_flex_r	arm_add_r	arm_rot_r	elbow_flex_r	pro_sup_r	wrist_flex_r	wrist_dev_r	arm_flex_l	arm_add_l	arm_rot_l	elbow_flex_l	pro_sup_l	wrist_flex_l	wrist_dev_l
      8.35500000000000042633	     17.73626985803316813417	      6.00694460909918070968	   -179.23957998949464354155	      0.30959423541760816567	      0.91220370467982814233	     -0.91361570977749562150	     36.92838307977628886647	    -23.22007131558634540625	    -24.21205558885240805012	     17.90376115723626071485	      0.31247958068444292579	    -10.87824678038743364539	      0.00000000000000000000	      0.00000000000000000000	     45.19281780625291133902	    -30.14047457740217694777	     -2.61036199918945577281	     24.24495313874197321979	      0.42315425926278099622	     -7.35331117929593602867	      0.00000000000000000000	      0.00000000000000000000	    -13.77219799602779026770	     10.88965900044545165315	      1.14847488748919834833	     21.60489001680580756215	    -14.55825939524086543031	     21.17788494371636076608	     20.69014392444687899797	     86.86470606503895908190	      0.00000000000000000000	      0.00000000000000000000	     23.65474100351468322856	     -5.92874111327738528843	     33.20490272612608606551	     19.42937677080653458006	     86.72285544166622628381	      0.00000000000000000000	      0.00000000000000000000
      8.35999999999999943157	     17.83284269823187884185	      6.10545492267922540464	   -179.27544704656710905510	      0.30876849499755215644	      0.91197756009684560752	     -0.91371376940020010426	     36.88422649049772417129	    -23.08377596654040075919	    -24.51769971031455597199	     17.77954638921984553690	      0.31031162400295553283	    -10.70287589070838762950	      0.00000000000000000000	      0.00000000000000000000	     45.17317720752051712907	    -30.25197774952851048624	     -2.68131875562158894510	     24.10414999703840521761	      0.42069678084290162978	     -7.10375578051186362671	      0.00000000000000000000	      0.00000000000000000000	    -13.17484584895719024189	     11.00400229839171650781	      1.08829737131614012746	     21.31196885826226150584	    -14.56439108901138190788	     21.31228436927833413961	     20.59759231292719761086	     86.88351602965563813541	      0.00000000000000000000	      0.00000000000000000000	     23.33219550745722870033	     -5.92510283063971598949	     33.35903277699458868710	     19.35032249432422091218	     86.74528015948975223637	      0.00000000000000000000	      0.00000000000000000000
      8.36500000000000021316	     17.88500742873151594381	      6.16242349306228032191	   -179.25430811706635836345	      0.30778773504680839723	      0.91183030854058566561	     -0.91373943850996797167	     36.77631682256923539853	    -23.01772781550209501233	    -24.77550269082813372279	     17.67278262386432885478	      0.30844824477567511778	    -10.52311650558570477187	      0.00000000000000000000	      0.00000000000000000000	     45.14481551829404537557	    -30.28313687124605380063	     -2.66531297757275575933	     24.03779291486267410960	      0.41953863127691864987	     -6.95225793321609852882	      0.00000000000000000000	      0.00000000000000000000	    -12.60008323583219080888	     11.07602028291336360155	      0.95433500418771100016	     21.01124962631758563703	    -14.54200295784228735840	     21.41904389717742773769	     20.53241046520664170316	     86.87556883678543329097	      0.00000000000000000000	      0.00000000000000000000	     23.01853385027463616552	     -5.94888430159502945571	     33.47651965195921519580	     19.31065210599583892304	     86.73710609356021450367	      0.00000000000000000000	      0.00000000000000000000
      8.36999999999999921840	     17.88309014514744532676	      6.13427698013169386826	   -179.20543774973714334919	      0.30691060393342245449	      0.91180077845830054262	     -0.91364313292241383646	     36.60768895910750586609	    -23.04512530786997004384	    -25.06496344272516552110	     17.51115064139626653628	      0.30562723450508172407	    -10.42209187612949783386	      0.00000000000000000000	      0.00000000000000000000	     45.09223119542889435252	    -30.21629740285643705988	     -2.58961452023240790155	     24.05995595081547122618	      0.41992544922653285422	     -6.91420393766857088735	      0.00000000000000000000	      0.00000000000000000000	    -12.10172581141240755187	     11.04878754563016585166	      0.75260963773995703807	     20.73015271283829008553	    -14.49761434966291773208	     21.44243948039664360294	     20.48532331857681398901	     86.90862943706949295120	      0.00000000000000000000	      0.00000000000000000000	     22.65104310974674817203	     -5.96586385542683306227	     33.54093927106444539277	     19.21139554826253004194	     86.77396101731248734268	      0.00000000000000000000	      0.00000000000000000000
      8.37500000000000000000	     17.92209150543236972908	      6.16572133943980116300	   -179.17343985063837408234	      0.30588070221125363002	      0.91172063547545023621	     -0.91370291789395208237	     36.47961930386746587374	    -22.99751396957714533187	    -25.34469612949843408956	     17.37279823981127435673	      0.30321252956938216094	    -10.27989968391247543877	      0.00000000000000000000	      0.00000000000000000000	     45.03003438216671128203	    -30.22298401996837569072	     -2.58360681151447213466	     23.99148390292078758534	      0.41873038654518734969	     -6.76451868691723312566	      0.00000000000000000000	      0.00000000000000000000	    -11.51931148531259019308	     11.08342662652604637685	      0.56113283220366971804	     20.37559144187686754890	    -14.41221722674202077030	     21.47193187913696377223	     20.42996344773092687319	     86.93908660202809812745	      0.00000000000000000000	      0.00000000000000000000	     22.31711833205295292260	     -6.00731895592181874832	     33.58200200773059407311	     19.16379603867972392095	     86.80371146920468561348	      0.00000000000000000000	      0.00000000000000000000
      8.38000000000000078160	     18.24318751280456396557	      6.30298622562330645991	   -179.25405203664948317055	      0.30522088130548830076	      0.91094447409785872516	     -0.91414355971348493224	     36.72953815842076608078	    -22.80222097628124089397	    -25.52721633522351396550	     17.35410691716016629016	      0.30288630444756775573	     -9.85136795329988323999	      0.00000000000000000000	      0.00000000000000000000	     45.32600787467456626700	    -30.39637584280189841479	     -2.57962486228288589984	     23.92924986001310116990	      0.41764419758962079143	     -6.55277332468158224543	      0.00000000000000000000	      0.00000000000000000000	    -10.64497539460197117478	     11.21405026761612688802	      0.45792993373300644455	     19.91798096103990189931	    -14.43925382041982352632	     21.47162145528835708319	     20.59103766183939399070	     86.82327163247320811479	      0.00000000000000000000	      0.00000000000000000000	     21.65333050873480047471	     -6.36595486919805075843	     33.59851814674662051630	     19.95749297637512142956	     86.73594696971811401909	      0.00000000000000000000	      0.00000000000000000000
      8.38499999999999978684	     18.22835926882010326722	      6.28817897116022361814	   -179.17807275708085512633	      0.30419702414532900914	      0.91094861801481696872	     -0.91410621450561913015	     36.53479430939452754501	    -22.82699059228215077155	    -25.78261010862015822909	     17.21032764331564735016	      0.30037688272285434365	     -9.76204114718414750484	      0.00000000000000000000	      0.00000000000000000000	     45.25718963793610782886	    -30.32713773222203457181	     -2.49302850374694529023	     23.93715262324068149269	      0.41778212682794763078	     -6.49523531150248523147	      0.00000000000000000000	      0.00000000000000000000	    -10.12537098048958661423	     11.21982900725827825283	      0.19788467731637116032	     19.59461362834696274149	    -14.37061835734458448144	     21.44527475004055006025	     20.56859078800281892541	     86.83131260971470055665	      0.00000000000000000000	      0.00000000000000000000	     21.26013554649449588396	     -6.40873049461179622455	     33.63872750235745456848	     19.82667689647104936057	     86.74757917457758082946	      0.00000000000000000000	      0.00000000000000000000
      8.39000000000000056843	     18.26305607965190347386	      6.30357565692164367732	   -179.14572248731874992700	      0.30306272664221894919	      0.91083074620966597568	     -0.91422303136980509475	     36.39383546329003138453	    -22.78986379824106123237	    -26.07359226947367858429	     17.05656299757766447556	      0.29769318338156386394	     -9.63281928825266930971	      0.00000000000000000000	      0.00000000000000000000	     45.18620745210457556595	    -30.32024259435186053224	     -2.47568806938726737599	     23.87742640943008254339	      0.41673970774720259236	     -6.37674668168883318486	      0.00000000000000000000	      0.00000000000000000000	     -9.54052033630812346132	     11.24866731678103093373	     -0.05147077976520020304	     19.24196515313584754381	    -14.29859800524937440969	     21.38790772711350030022	     20.55785110022336681368	     86.87405428102692894754	      0.00000000000000000000	      0.00000000000000000000	     20.86253071601910846766	     -6.45601851449902142122	     33.66306574418493369194	     19.71920899750126920935	     86.79395630392089344696	      0.00000000000000000000	      0.00000000000000000000
